<svg xmlns="http://www.w3.org/2000/svg" xmlns:xlink="http://www.w3.org/1999/xlink" contentStyleType="text/css" height="651px" preserveAspectRatio="none" style="width:1793px;height:651px;background:#FFFFFF;" version="1.1" viewBox="0 0 1793 651" width="1793px" zoomAndPan="magnify"><defs/><g><!--class MultiplatformReader--><g id="elem_MultiplatformReader"><rect codeLine="2" fill="#F1F1F1" height="234.2109" id="MultiplatformReader" rx="2.5" ry="2.5" style="stroke:#181818;stroke-width:0.5;" width="350.4541" x="217.5" y="7"/><ellipse cx="325.4531" cy="23" fill="#ADD1B2" rx="11" ry="11" style="stroke:#181818;stroke-width:1.0;"/><path d="M328.2188,18.875 Q328.375,18.6563 328.5625,18.5469 Q328.75,18.4375 328.9688,18.4375 Q329.3438,18.4375 329.5781,18.7031 Q329.8125,18.9531 329.8125,19.5625 L329.8125,21.0156 Q329.8125,21.625 329.5781,21.8906 Q329.3438,22.1563 328.9688,22.1563 Q328.625,22.1563 328.4219,21.9531 Q328.2188,21.7656 328.1094,21.25 Q328.0625,20.8906 327.875,20.7031 Q327.5469,20.3281 326.9375,20.1094 Q326.3281,19.8906 325.7031,19.8906 Q324.9375,19.8906 324.2969,20.2188 Q323.6719,20.5469 323.1719,21.2969 Q322.6875,22.0469 322.6875,23.0781 L322.6875,24.1719 Q322.6875,25.4063 323.5781,26.2344 Q324.4688,27.0469 326.0625,27.0469 Q327,27.0469 327.6563,26.7969 Q328.0469,26.6406 328.4688,26.2031 Q328.7344,25.9375 328.875,25.8594 Q329.0313,25.7813 329.2344,25.7813 Q329.5625,25.7813 329.8125,26.0469 Q330.0781,26.2969 330.0781,26.6406 Q330.0781,26.9844 329.7344,27.3906 Q329.2344,27.9688 328.4375,28.2969 Q327.3594,28.75 326.0625,28.75 Q324.5469,28.75 323.3438,28.125 Q322.3594,27.625 321.6719,26.5625 Q320.9844,25.4844 320.9844,24.2031 L320.9844,23.0469 Q320.9844,21.7188 321.5938,20.5781 Q322.2188,19.4219 323.3125,18.8125 Q324.4063,18.1875 325.6406,18.1875 Q326.375,18.1875 327.0156,18.3594 Q327.6719,18.5156 328.2188,18.875 Z " fill="#000000"/><text fill="#000000" font-family="sans-serif" font-size="14" lengthAdjust="spacing" textLength="126.0479" x="345.9531" y="28.7969">MultiplatformReader</text><line style="stroke:#181818;stroke-width:0.5;" x1="218.5" x2="566.9541" y1="39" y2="39"/><rect fill="none" height="6" style="stroke:#C82930;stroke-width:1.0;" width="6" x="225.5" y="50.8105"/><text fill="#000000" font-family="sans-serif" font-size="14" lengthAdjust="spacing" textLength="172.7578" x="237.5" y="58.1074">nfcReader: LocalNfcReader</text><rect fill="none" height="6" style="stroke:#C82930;stroke-width:1.0;" width="6" x="225.5" y="69.4316"/><text fill="#000000" font-family="sans-serif" font-size="14" lengthAdjust="spacing" textLength="84.0273" x="237.5" y="76.7285">mutex: Mutex</text><line style="stroke:#181818;stroke-width:0.5;" x1="218.5" x2="566.9541" y1="84.2422" y2="84.2422"/><ellipse cx="228.5" cy="99.0527" fill="#84BE84" rx="3" ry="3" style="stroke:#038048;stroke-width:1.0;"/><text fill="#000000" font-family="sans-serif" font-size="14" lengthAdjust="spacing" textLength="187.5166" x="237.5" y="103.3496">setScanMessage(msg: String)</text><ellipse cx="228.5" cy="117.6738" fill="#84BE84" rx="3" ry="3" style="stroke:#038048;stroke-width:1.0;"/><text fill="#000000" font-family="sans-serif" font-size="14" lengthAdjust="spacing" textLength="192.9717" x="237.5" y="121.9707">waitForCardPresent(): Boolean</text><ellipse cx="228.5" cy="136.2949" fill="#84BE84" rx="3" ry="3" style="stroke:#038048;stroke-width:1.0;"/><text fill="#000000" font-family="sans-serif" font-size="14" lengthAdjust="spacing" textLength="274.2715" x="237.5" y="140.5918">startCardDetection(onCardFound: () -&gt; Unit)</text><ellipse cx="228.5" cy="154.916" fill="#84BE84" rx="3" ry="3" style="stroke:#038048;stroke-width:1.0;"/><text fill="#000000" font-family="sans-serif" font-size="14" lengthAdjust="spacing" textLength="144.751" x="237.5" y="159.2129">openPhysicalChannel()</text><ellipse cx="228.5" cy="173.5371" fill="#84BE84" rx="3" ry="3" style="stroke:#038048;stroke-width:1.0;"/><text fill="#000000" font-family="sans-serif" font-size="14" lengthAdjust="spacing" textLength="146.2891" x="237.5" y="177.834">closePhysicalChannel()</text><ellipse cx="228.5" cy="192.1582" fill="#84BE84" rx="3" ry="3" style="stroke:#038048;stroke-width:1.0;"/><text fill="#000000" font-family="sans-serif" font-size="14" lengthAdjust="spacing" textLength="161.0684" x="237.5" y="196.4551">getPowerOnData(): String</text><ellipse cx="228.5" cy="210.7793" fill="#84BE84" rx="3" ry="3" style="stroke:#038048;stroke-width:1.0;"/><text fill="#000000" font-family="sans-serif" font-size="14" lengthAdjust="spacing" textLength="324.4541" x="237.5" y="215.0762">transmitApdu(commandApdu: ByteArray): ByteArray</text><ellipse cx="228.5" cy="229.4004" fill="#84BE84" rx="3" ry="3" style="stroke:#038048;stroke-width:1.0;"/><text fill="#000000" font-family="sans-serif" font-size="14" lengthAdjust="spacing" textLength="55.2412" x="237.5" y="233.6973">release()</text></g><!--class LocalNfcReader--><g id="elem_LocalNfcReader"><rect codeLine="15" fill="#F1F1F1" height="196.9688" id="LocalNfcReader" rx="2.5" ry="2.5" style="stroke:#181818;stroke-width:0.5;" width="350.4541" x="214.5" y="302"/><ellipse cx="335.2842" cy="318" fill="#A9DCDF" rx="11" ry="11" style="stroke:#181818;stroke-width:1.0;"/><path d="M337.4717,319.7656 L333.3311,319.7656 L332.9092,320.7969 L333.3311,320.7969 Q333.9404,320.7969 334.2061,321.0313 Q334.4717,321.2656 334.4717,321.6563 Q334.4717,322.0313 334.2061,322.2656 Q333.9404,322.5 333.3311,322.5 L331.0342,322.5 Q330.4248,322.5 330.1748,322.2656 Q329.9092,322.0313 329.9092,321.6406 Q329.9092,321.2656 330.1904,321.0313 Q330.4561,320.7813 331.0811,320.7969 L333.7529,314.1406 L332.6436,314.1406 Q332.0342,314.1406 331.7686,313.9063 Q331.5029,313.6719 331.5029,313.2813 Q331.5029,312.9063 331.7686,312.6719 Q332.0342,312.4375 332.6436,312.4375 L336.3154,312.4375 L339.7061,320.7969 Q340.2998,320.7969 340.4873,320.9375 Q340.8779,321.2031 340.8779,321.6563 Q340.8779,322.0313 340.6123,322.2656 Q340.3623,322.5 339.7529,322.5 L337.4561,322.5 Q336.8467,322.5 336.5811,322.2656 Q336.3154,322.0313 336.3154,321.6406 Q336.3154,321.2656 336.5811,321.0313 Q336.8467,320.7969 337.4561,320.7969 L337.8779,320.7969 L337.4717,319.7656 Z M336.7529,318.0625 L335.3936,314.6875 L334.0186,318.0625 L336.7529,318.0625 Z " fill="#000000"/><text fill="#000000" font-family="sans-serif" font-size="14" font-style="italic" lengthAdjust="spacing" textLength="100.3857" x="355.7842" y="323.7969">LocalNfcReader</text><line style="stroke:#181818;stroke-width:0.5;" x1="215.5" x2="563.9541" y1="334" y2="334"/><ellipse cx="225.5" cy="348.8105" fill="none" rx="3" ry="3" style="stroke:#038048;stroke-width:1.0;"/><text fill="#000000" font-family="sans-serif" font-size="14" lengthAdjust="spacing" textLength="130.7305" x="234.5" y="353.1074">scanMessage: String</text><line style="stroke:#181818;stroke-width:0.5;" x1="215.5" x2="563.9541" y1="360.6211" y2="360.6211"/><ellipse cx="225.5" cy="375.4316" fill="#84BE84" rx="3" ry="3" style="stroke:#038048;stroke-width:1.0;"/><text fill="#000000" font-family="sans-serif" font-size="14" lengthAdjust="spacing" textLength="192.9717" x="234.5" y="379.7285">waitForCardPresent(): Boolean</text><ellipse cx="225.5" cy="394.0527" fill="#84BE84" rx="3" ry="3" style="stroke:#038048;stroke-width:1.0;"/><text fill="#000000" font-family="sans-serif" font-size="14" lengthAdjust="spacing" textLength="274.2715" x="234.5" y="398.3496">startCardDetection(onCardFound: () -&gt; Unit)</text><ellipse cx="225.5" cy="412.6738" fill="#84BE84" rx="3" ry="3" style="stroke:#038048;stroke-width:1.0;"/><text fill="#000000" font-family="sans-serif" font-size="14" lengthAdjust="spacing" textLength="144.751" x="234.5" y="416.9707">openPhysicalChannel()</text><ellipse cx="225.5" cy="431.2949" fill="#84BE84" rx="3" ry="3" style="stroke:#038048;stroke-width:1.0;"/><text fill="#000000" font-family="sans-serif" font-size="14" lengthAdjust="spacing" textLength="146.2891" x="234.5" y="435.5918">closePhysicalChannel()</text><ellipse cx="225.5" cy="449.916" fill="#84BE84" rx="3" ry="3" style="stroke:#038048;stroke-width:1.0;"/><text fill="#000000" font-family="sans-serif" font-size="14" lengthAdjust="spacing" textLength="161.0684" x="234.5" y="454.2129">getPowerOnData(): String</text><ellipse cx="225.5" cy="468.5371" fill="#84BE84" rx="3" ry="3" style="stroke:#038048;stroke-width:1.0;"/><text fill="#000000" font-family="sans-serif" font-size="14" lengthAdjust="spacing" textLength="324.4541" x="234.5" y="472.834">transmitApdu(commandApdu: ByteArray): ByteArray</text><ellipse cx="225.5" cy="487.1582" fill="#84BE84" rx="3" ry="3" style="stroke:#038048;stroke-width:1.0;"/><text fill="#000000" font-family="sans-serif" font-size="14" lengthAdjust="spacing" textLength="101.1582" x="234.5" y="491.4551">releaseReader()</text></g><!--class AndroidNfcReader--><g id="elem_AndroidNfcReader"><rect codeLine="26" fill="#F1F1F1" height="122.4844" id="AndroidNfcReader" rx="2.5" ry="2.5" style="stroke:#181818;stroke-width:0.5;" width="175.4473" x="7" y="63"/><ellipse cx="34.7239" cy="79" fill="#ADD1B2" rx="11" ry="11" style="stroke:#181818;stroke-width:1.0;"/><path d="M37.4896,74.875 Q37.6458,74.6563 37.8333,74.5469 Q38.0208,74.4375 38.2396,74.4375 Q38.6146,74.4375 38.8489,74.7031 Q39.0833,74.9531 39.0833,75.5625 L39.0833,77.0156 Q39.0833,77.625 38.8489,77.8906 Q38.6146,78.1563 38.2396,78.1563 Q37.8958,78.1563 37.6927,77.9531 Q37.4896,77.7656 37.3802,77.25 Q37.3333,76.8906 37.1458,76.7031 Q36.8177,76.3281 36.2083,76.1094 Q35.5989,75.8906 34.9739,75.8906 Q34.2083,75.8906 33.5677,76.2188 Q32.9427,76.5469 32.4427,77.2969 Q31.9583,78.0469 31.9583,79.0781 L31.9583,80.1719 Q31.9583,81.4063 32.8489,82.2344 Q33.7396,83.0469 35.3333,83.0469 Q36.2708,83.0469 36.9271,82.7969 Q37.3177,82.6406 37.7396,82.2031 Q38.0052,81.9375 38.1458,81.8594 Q38.3021,81.7813 38.5052,81.7813 Q38.8333,81.7813 39.0833,82.0469 Q39.3489,82.2969 39.3489,82.6406 Q39.3489,82.9844 39.0052,83.3906 Q38.5052,83.9688 37.7083,84.2969 Q36.6302,84.75 35.3333,84.75 Q33.8177,84.75 32.6146,84.125 Q31.6302,83.625 30.9427,82.5625 Q30.2552,81.4844 30.2552,80.2031 L30.2552,79.0469 Q30.2552,77.7188 30.8646,76.5781 Q31.4896,75.4219 32.5833,74.8125 Q33.6771,74.1875 34.9114,74.1875 Q35.6458,74.1875 36.2864,74.3594 Q36.9427,74.5156 37.4896,74.875 Z " fill="#000000"/><text fill="#000000" font-family="sans-serif" font-size="14" lengthAdjust="spacing" textLength="115.1719" x="51.5515" y="84.7969">AndroidNfcReader</text><line style="stroke:#181818;stroke-width:0.5;" x1="8" x2="181.4473" y1="95" y2="95"/><rect fill="none" height="6" style="stroke:#C82930;stroke-width:1.0;" width="6" x="15" y="106.8105"/><text fill="#000000" font-family="sans-serif" font-size="14" lengthAdjust="spacing" textLength="51.3652" x="27" y="114.1074">tag: Tag</text><rect fill="none" height="6" style="stroke:#C82930;stroke-width:1.0;" width="6" x="15" y="125.4316"/><text fill="#000000" font-family="sans-serif" font-size="14" lengthAdjust="spacing" textLength="95.7168" x="27" y="132.7285">isoDep: IsoDep</text><rect fill="none" height="6" style="stroke:#C82930;stroke-width:1.0;" width="6" x="15" y="144.0527"/><text fill="#000000" font-family="sans-serif" font-size="14" lengthAdjust="spacing" textLength="149.4473" x="27" y="151.3496">channel: Channel&lt;Tag&gt;</text><rect fill="none" height="6" style="stroke:#C82930;stroke-width:1.0;" width="6" x="15" y="162.6738"/><text fill="#000000" font-family="sans-serif" font-size="14" lengthAdjust="spacing" textLength="94.9033" x="27" y="169.9707">activity: Activity</text><line style="stroke:#181818;stroke-width:0.5;" x1="8" x2="181.4473" y1="177.4844" y2="177.4844"/></g><!--class iOSNfcReader--><g id="elem_iOSNfcReader"><rect codeLine="33" fill="#F1F1F1" height="85.2422" id="iOSNfcReader" rx="2.5" ry="2.5" style="stroke:#181818;stroke-width:0.5;" width="288.2266" x="730.5" y="81.5"/><ellipse cx="825.2358" cy="97.5" fill="#ADD1B2" rx="11" ry="11" style="stroke:#181818;stroke-width:1.0;"/><path d="M828.0015,93.375 Q828.1577,93.1563 828.3452,93.0469 Q828.5327,92.9375 828.7515,92.9375 Q829.1265,92.9375 829.3608,93.2031 Q829.5952,93.4531 829.5952,94.0625 L829.5952,95.5156 Q829.5952,96.125 829.3608,96.3906 Q829.1265,96.6563 828.7515,96.6563 Q828.4077,96.6563 828.2046,96.4531 Q828.0015,96.2656 827.8921,95.75 Q827.8452,95.3906 827.6577,95.2031 Q827.3296,94.8281 826.7202,94.6094 Q826.1108,94.3906 825.4858,94.3906 Q824.7202,94.3906 824.0796,94.7188 Q823.4546,95.0469 822.9546,95.7969 Q822.4702,96.5469 822.4702,97.5781 L822.4702,98.6719 Q822.4702,99.9063 823.3608,100.7344 Q824.2515,101.5469 825.8452,101.5469 Q826.7827,101.5469 827.439,101.2969 Q827.8296,101.1406 828.2515,100.7031 Q828.5171,100.4375 828.6577,100.3594 Q828.814,100.2813 829.0171,100.2813 Q829.3452,100.2813 829.5952,100.5469 Q829.8608,100.7969 829.8608,101.1406 Q829.8608,101.4844 829.5171,101.8906 Q829.0171,102.4688 828.2202,102.7969 Q827.1421,103.25 825.8452,103.25 Q824.3296,103.25 823.1265,102.625 Q822.1421,102.125 821.4546,101.0625 Q820.7671,99.9844 820.7671,98.7031 L820.7671,97.5469 Q820.7671,96.2188 821.3765,95.0781 Q822.0015,93.9219 823.0952,93.3125 Q824.189,92.6875 825.4233,92.6875 Q826.1577,92.6875 826.7983,92.8594 Q827.4546,93.0156 828.0015,93.375 Z " fill="#000000"/><text fill="#000000" font-family="sans-serif" font-size="14" lengthAdjust="spacing" textLength="90.2549" x="845.7358" y="103.2969">iOSNfcReader</text><line style="stroke:#181818;stroke-width:0.5;" x1="731.5" x2="1017.7266" y1="113.5" y2="113.5"/><rect fill="none" height="6" style="stroke:#C82930;stroke-width:1.0;" width="6" x="738.5" y="125.3105"/><text fill="#000000" font-family="sans-serif" font-size="14" lengthAdjust="spacing" textLength="262.2266" x="750.5" y="132.6074">readerCallback: NativeNfcReaderCallback</text><line style="stroke:#181818;stroke-width:0.5;" x1="731.5" x2="1017.7266" y1="140.1211" y2="140.1211"/><rect fill="#F24D5C" height="6" style="stroke:#C82930;stroke-width:1.0;" width="6" x="738.5" y="151.9316"/><text fill="#000000" font-family="sans-serif" font-size="14" lengthAdjust="spacing" textLength="228.3613" x="750.5" y="159.2285">getErrorMsg: (e: Exception) -&gt; String</text></g><!--class NfcTag--><g id="elem_NfcTag"><rect codeLine="38" fill="#F1F1F1" height="85.2422" id="NfcTag" rx="2.5" ry="2.5" style="stroke:#181818;stroke-width:0.5;" width="380.8057" x="812" y="358"/><ellipse cx="975.5908" cy="374" fill="#ADD1B2" rx="11" ry="11" style="stroke:#181818;stroke-width:1.0;"/><path d="M978.3564,369.875 Q978.5127,369.6563 978.7002,369.5469 Q978.8877,369.4375 979.1064,369.4375 Q979.4814,369.4375 979.7158,369.7031 Q979.9502,369.9531 979.9502,370.5625 L979.9502,372.0156 Q979.9502,372.625 979.7158,372.8906 Q979.4814,373.1563 979.1064,373.1563 Q978.7627,373.1563 978.5596,372.9531 Q978.3564,372.7656 978.2471,372.25 Q978.2002,371.8906 978.0127,371.7031 Q977.6846,371.3281 977.0752,371.1094 Q976.4658,370.8906 975.8408,370.8906 Q975.0752,370.8906 974.4346,371.2188 Q973.8096,371.5469 973.3096,372.2969 Q972.8252,373.0469 972.8252,374.0781 L972.8252,375.1719 Q972.8252,376.4063 973.7158,377.2344 Q974.6064,378.0469 976.2002,378.0469 Q977.1377,378.0469 977.7939,377.7969 Q978.1846,377.6406 978.6064,377.2031 Q978.8721,376.9375 979.0127,376.8594 Q979.1689,376.7813 979.3721,376.7813 Q979.7002,376.7813 979.9502,377.0469 Q980.2158,377.2969 980.2158,377.6406 Q980.2158,377.9844 979.8721,378.3906 Q979.3721,378.9688 978.5752,379.2969 Q977.4971,379.75 976.2002,379.75 Q974.6846,379.75 973.4814,379.125 Q972.4971,378.625 971.8096,377.5625 Q971.1221,376.4844 971.1221,375.2031 L971.1221,374.0469 Q971.1221,372.7188 971.7314,371.5781 Q972.3564,370.4219 973.4502,369.8125 Q974.5439,369.1875 975.7783,369.1875 Q976.5127,369.1875 977.1533,369.3594 Q977.8096,369.5156 978.3564,369.875 Z " fill="#000000"/><text fill="#000000" font-family="sans-serif" font-size="14" lengthAdjust="spacing" textLength="45.124" x="996.0908" y="379.7969">NfcTag</text><line style="stroke:#181818;stroke-width:0.5;" x1="813" x2="1191.8057" y1="390" y2="390"/><rect fill="none" height="6" style="stroke:#C82930;stroke-width:1.0;" width="6" x="820" y="401.8105"/><text fill="#000000" font-family="sans-serif" font-size="14" lengthAdjust="spacing" textLength="186.7578" x="832" y="409.1074">tag: NFCISO7816TagProtocol</text><line style="stroke:#181818;stroke-width:0.5;" x1="813" x2="1191.8057" y1="416.6211" y2="416.6211"/><ellipse cx="823" cy="431.4316" fill="#84BE84" rx="3" ry="3" style="stroke:#038048;stroke-width:1.0;"/><text fill="#000000" font-family="sans-serif" font-size="14" lengthAdjust="spacing" textLength="354.8057" x="832" y="435.7285">sendCommand(isoApdu: NFCISO7816APDU): ByteArray</text></g><!--class NativeNfcReaderCallback--><g id="elem_NativeNfcReaderCallback"><rect codeLine="43" fill="#F1F1F1" height="103.8633" id="NativeNfcReaderCallback" rx="2.5" ry="2.5" style="stroke:#181818;stroke-width:0.5;" width="558.2188" x="1228.5" y="348.5"/><ellipse cx="1423.2148" cy="364.5" fill="#ADD1B2" rx="11" ry="11" style="stroke:#181818;stroke-width:1.0;"/><path d="M1425.9805,360.375 Q1426.1367,360.1563 1426.3242,360.0469 Q1426.5117,359.9375 1426.7305,359.9375 Q1427.1055,359.9375 1427.3398,360.2031 Q1427.5742,360.4531 1427.5742,361.0625 L1427.5742,362.5156 Q1427.5742,363.125 1427.3398,363.3906 Q1427.1055,363.6563 1426.7305,363.6563 Q1426.3867,363.6563 1426.1836,363.4531 Q1425.9805,363.2656 1425.8711,362.75 Q1425.8242,362.3906 1425.6367,362.2031 Q1425.3086,361.8281 1424.6992,361.6094 Q1424.0898,361.3906 1423.4648,361.3906 Q1422.6992,361.3906 1422.0586,361.7188 Q1421.4336,362.0469 1420.9336,362.7969 Q1420.4492,363.5469 1420.4492,364.5781 L1420.4492,365.6719 Q1420.4492,366.9063 1421.3398,367.7344 Q1422.2305,368.5469 1423.8242,368.5469 Q1424.7617,368.5469 1425.418,368.2969 Q1425.8086,368.1406 1426.2305,367.7031 Q1426.4961,367.4375 1426.6367,367.3594 Q1426.793,367.2813 1426.9961,367.2813 Q1427.3242,367.2813 1427.5742,367.5469 Q1427.8398,367.7969 1427.8398,368.1406 Q1427.8398,368.4844 1427.4961,368.8906 Q1426.9961,369.4688 1426.1992,369.7969 Q1425.1211,370.25 1423.8242,370.25 Q1422.3086,370.25 1421.1055,369.625 Q1420.1211,369.125 1419.4336,368.0625 Q1418.7461,366.9844 1418.7461,365.7031 L1418.7461,364.5469 Q1418.7461,363.2188 1419.3555,362.0781 Q1419.9805,360.9219 1421.0742,360.3125 Q1422.168,359.6875 1423.4023,359.6875 Q1424.1367,359.6875 1424.7773,359.8594 Q1425.4336,360.0156 1425.9805,360.375 Z " fill="#000000"/><text fill="#000000" font-family="sans-serif" font-size="14" lengthAdjust="spacing" textLength="160.2891" x="1443.7148" y="370.2969">NativeNfcReaderCallback</text><line style="stroke:#181818;stroke-width:0.5;" x1="1229.5" x2="1785.7188" y1="380.5" y2="380.5"/><line style="stroke:#181818;stroke-width:0.5;" x1="1229.5" x2="1785.7188" y1="388.5" y2="388.5"/><ellipse cx="1239.5" cy="403.3105" fill="#84BE84" rx="3" ry="3" style="stroke:#038048;stroke-width:1.0;"/><text fill="#000000" font-family="sans-serif" font-size="14" lengthAdjust="spacing" textLength="438.8672" x="1248.5" y="407.6074">tagReaderSessionDidBecomeActive(session: NFCTagReaderSession)</text><ellipse cx="1239.5" cy="421.9316" fill="#84BE84" rx="3" ry="3" style="stroke:#038048;stroke-width:1.0;"/><text fill="#000000" font-family="sans-serif" font-size="14" lengthAdjust="spacing" textLength="455.9912" x="1248.5" y="426.2285">tagReaderSession(session: NFCTagReaderSession, didDetectTags: List)</text><ellipse cx="1239.5" cy="440.5527" fill="#84BE84" rx="3" ry="3" style="stroke:#038048;stroke-width:1.0;"/><text fill="#000000" font-family="sans-serif" font-size="14" lengthAdjust="spacing" textLength="532.2188" x="1248.5" y="444.8496">tagReaderSession(session: NFCTagReaderSession, didInvalidateWithError: NSError)</text></g><!--class ReaderIOException--><g id="elem_ReaderIOException"><rect codeLine="49" fill="#F1F1F1" height="66.6211" id="ReaderIOException" rx="2.5" ry="2.5" style="stroke:#181818;stroke-width:0.5;" width="154.1787" x="130.5" y="578"/><ellipse cx="145.5" cy="594" fill="#ADD1B2" rx="11" ry="11" style="stroke:#181818;stroke-width:1.0;"/><path d="M148.2656,589.875 Q148.4219,589.6563 148.6094,589.5469 Q148.7969,589.4375 149.0156,589.4375 Q149.3906,589.4375 149.625,589.7031 Q149.8594,589.9531 149.8594,590.5625 L149.8594,592.0156 Q149.8594,592.625 149.625,592.8906 Q149.3906,593.1563 149.0156,593.1563 Q148.6719,593.1563 148.4688,592.9531 Q148.2656,592.7656 148.1563,592.25 Q148.1094,591.8906 147.9219,591.7031 Q147.5938,591.3281 146.9844,591.1094 Q146.375,590.8906 145.75,590.8906 Q144.9844,590.8906 144.3438,591.2188 Q143.7188,591.5469 143.2188,592.2969 Q142.7344,593.0469 142.7344,594.0781 L142.7344,595.1719 Q142.7344,596.4063 143.625,597.2344 Q144.5156,598.0469 146.1094,598.0469 Q147.0469,598.0469 147.7031,597.7969 Q148.0938,597.6406 148.5156,597.2031 Q148.7813,596.9375 148.9219,596.8594 Q149.0781,596.7813 149.2813,596.7813 Q149.6094,596.7813 149.8594,597.0469 Q150.125,597.2969 150.125,597.6406 Q150.125,597.9844 149.7813,598.3906 Q149.2813,598.9688 148.4844,599.2969 Q147.4063,599.75 146.1094,599.75 Q144.5938,599.75 143.3906,599.125 Q142.4063,598.625 141.7188,597.5625 Q141.0313,596.4844 141.0313,595.2031 L141.0313,594.0469 Q141.0313,592.7188 141.6406,591.5781 Q142.2656,590.4219 143.3594,589.8125 Q144.4531,589.1875 145.6875,589.1875 Q146.4219,589.1875 147.0625,589.3594 Q147.7188,589.5156 148.2656,589.875 Z " fill="#000000"/><text fill="#000000" font-family="sans-serif" font-size="14" lengthAdjust="spacing" textLength="122.1787" x="159.5" y="599.7969">ReaderIOException</text><line style="stroke:#181818;stroke-width:0.5;" x1="131.5" x2="283.6787" y1="610" y2="610"/><ellipse cx="141.5" cy="624.8105" fill="none" rx="3" ry="3" style="stroke:#038048;stroke-width:1.0;"/><text fill="#000000" font-family="sans-serif" font-size="14" lengthAdjust="spacing" textLength="101.1582" x="150.5" y="629.1074">message: String</text><line style="stroke:#181818;stroke-width:0.5;" x1="131.5" x2="283.6787" y1="636.6211" y2="636.6211"/></g><!--class CardIOException--><g id="elem_CardIOException"><rect codeLine="53" fill="#F1F1F1" height="66.6211" id="CardIOException" rx="2.5" ry="2.5" style="stroke:#181818;stroke-width:0.5;" width="138.6064" x="320" y="578"/><ellipse cx="335" cy="594" fill="#ADD1B2" rx="11" ry="11" style="stroke:#181818;stroke-width:1.0;"/><path d="M337.7656,589.875 Q337.9219,589.6563 338.1094,589.5469 Q338.2969,589.4375 338.5156,589.4375 Q338.8906,589.4375 339.125,589.7031 Q339.3594,589.9531 339.3594,590.5625 L339.3594,592.0156 Q339.3594,592.625 339.125,592.8906 Q338.8906,593.1563 338.5156,593.1563 Q338.1719,593.1563 337.9688,592.9531 Q337.7656,592.7656 337.6563,592.25 Q337.6094,591.8906 337.4219,591.7031 Q337.0938,591.3281 336.4844,591.1094 Q335.875,590.8906 335.25,590.8906 Q334.4844,590.8906 333.8438,591.2188 Q333.2188,591.5469 332.7188,592.2969 Q332.2344,593.0469 332.2344,594.0781 L332.2344,595.1719 Q332.2344,596.4063 333.125,597.2344 Q334.0156,598.0469 335.6094,598.0469 Q336.5469,598.0469 337.2031,597.7969 Q337.5938,597.6406 338.0156,597.2031 Q338.2813,596.9375 338.4219,596.8594 Q338.5781,596.7813 338.7813,596.7813 Q339.1094,596.7813 339.3594,597.0469 Q339.625,597.2969 339.625,597.6406 Q339.625,597.9844 339.2813,598.3906 Q338.7813,598.9688 337.9844,599.2969 Q336.9063,599.75 335.6094,599.75 Q334.0938,599.75 332.8906,599.125 Q331.9063,598.625 331.2188,597.5625 Q330.5313,596.4844 330.5313,595.2031 L330.5313,594.0469 Q330.5313,592.7188 331.1406,591.5781 Q331.7656,590.4219 332.8594,589.8125 Q333.9531,589.1875 335.1875,589.1875 Q335.9219,589.1875 336.5625,589.3594 Q337.2188,589.5156 337.7656,589.875 Z " fill="#000000"/><text fill="#000000" font-family="sans-serif" font-size="14" lengthAdjust="spacing" textLength="106.6064" x="349" y="599.7969">CardIOException</text><line style="stroke:#181818;stroke-width:0.5;" x1="321" x2="457.6064" y1="610" y2="610"/><ellipse cx="331" cy="624.8105" fill="none" rx="3" ry="3" style="stroke:#038048;stroke-width:1.0;"/><text fill="#000000" font-family="sans-serif" font-size="14" lengthAdjust="spacing" textLength="101.1582" x="340" y="629.1074">message: String</text><line style="stroke:#181818;stroke-width:0.5;" x1="321" x2="457.6064" y1="636.6211" y2="636.6211"/></g><!--class UnexpectedStatusWordException--><g id="elem_UnexpectedStatusWordException"><rect codeLine="57" fill="#F1F1F1" height="66.6211" id="UnexpectedStatusWordException" rx="2.5" ry="2.5" style="stroke:#181818;stroke-width:0.5;" width="241.3369" x="494" y="578"/><ellipse cx="509" cy="594" fill="#ADD1B2" rx="11" ry="11" style="stroke:#181818;stroke-width:1.0;"/><path d="M511.7656,589.875 Q511.9219,589.6563 512.1094,589.5469 Q512.2969,589.4375 512.5156,589.4375 Q512.8906,589.4375 513.125,589.7031 Q513.3594,589.9531 513.3594,590.5625 L513.3594,592.0156 Q513.3594,592.625 513.125,592.8906 Q512.8906,593.1563 512.5156,593.1563 Q512.1719,593.1563 511.9688,592.9531 Q511.7656,592.7656 511.6563,592.25 Q511.6094,591.8906 511.4219,591.7031 Q511.0938,591.3281 510.4844,591.1094 Q509.875,590.8906 509.25,590.8906 Q508.4844,590.8906 507.8438,591.2188 Q507.2188,591.5469 506.7188,592.2969 Q506.2344,593.0469 506.2344,594.0781 L506.2344,595.1719 Q506.2344,596.4063 507.125,597.2344 Q508.0156,598.0469 509.6094,598.0469 Q510.5469,598.0469 511.2031,597.7969 Q511.5938,597.6406 512.0156,597.2031 Q512.2813,596.9375 512.4219,596.8594 Q512.5781,596.7813 512.7813,596.7813 Q513.1094,596.7813 513.3594,597.0469 Q513.625,597.2969 513.625,597.6406 Q513.625,597.9844 513.2813,598.3906 Q512.7813,598.9688 511.9844,599.2969 Q510.9063,599.75 509.6094,599.75 Q508.0938,599.75 506.8906,599.125 Q505.9063,598.625 505.2188,597.5625 Q504.5313,596.4844 504.5313,595.2031 L504.5313,594.0469 Q504.5313,592.7188 505.1406,591.5781 Q505.7656,590.4219 506.8594,589.8125 Q507.9531,589.1875 509.1875,589.1875 Q509.9219,589.1875 510.5625,589.3594 Q511.2188,589.5156 511.7656,589.875 Z " fill="#000000"/><text fill="#000000" font-family="sans-serif" font-size="14" lengthAdjust="spacing" textLength="209.3369" x="523" y="599.7969">UnexpectedStatusWordException</text><line style="stroke:#181818;stroke-width:0.5;" x1="495" x2="734.3369" y1="610" y2="610"/><ellipse cx="505" cy="624.8105" fill="none" rx="3" ry="3" style="stroke:#038048;stroke-width:1.0;"/><text fill="#000000" font-family="sans-serif" font-size="14" lengthAdjust="spacing" textLength="101.1582" x="514" y="629.1074">message: String</text><line style="stroke:#181818;stroke-width:0.5;" x1="495" x2="734.3369" y1="636.6211" y2="636.6211"/></g><g id="elem_GMN19"><path d="M12.5,361 L12.5,440.1641 A0,0 0 0 0 12.5,440.1641 L176.5444,440.1641 A0,0 0 0 0 176.5444,440.1641 L176.5444,371 L166.5444,361 L98.5,361 L94.5,185.24 L90.5,361 L12.5,361 A0,0 0 0 0 12.5,361 " fill="#FEFFDD" style="stroke:#181818;stroke-width:0.5;"/><path d="M166.5444,361 L166.5444,371 L176.5444,371 L166.5444,361 " fill="#FEFFDD" style="stroke:#181818;stroke-width:0.5;"/><text fill="#000000" font-family="sans-serif" font-size="13" lengthAdjust="spacing" textLength="143.0444" x="18.5" y="380.0283">Uses Android NFC APIs:</text><text fill="#000000" font-family="sans-serif" font-size="13" lengthAdjust="spacing" textLength="49.1309" x="18.5" y="397.3193">- IsoDep</text><text fill="#000000" font-family="sans-serif" font-size="13" lengthAdjust="spacing" textLength="72.9727" x="18.5" y="414.6104">- NfcAdapter</text><text fill="#000000" font-family="sans-serif" font-size="13" lengthAdjust="spacing" textLength="30.3418" x="18.5" y="431.9014">- Tag</text></g><g id="elem_GMN22"><path d="M600,369.5 L600,431.373 A0,0 0 0 0 600,431.373 L777.0635,431.373 A0,0 0 0 0 777.0635,431.373 L777.0635,379.5 L767.0635,369.5 L712.95,369.5 L846.25,166.69 L704.95,369.5 L600,369.5 A0,0 0 0 0 600,369.5 " fill="#FEFFDD" style="stroke:#181818;stroke-width:0.5;"/><path d="M767.0635,369.5 L767.0635,379.5 L777.0635,379.5 L767.0635,369.5 " fill="#FEFFDD" style="stroke:#181818;stroke-width:0.5;"/><text fill="#000000" font-family="sans-serif" font-size="13" lengthAdjust="spacing" textLength="117.019" x="606" y="388.5283">Uses iOS CoreNFC:</text><text fill="#000000" font-family="sans-serif" font-size="13" lengthAdjust="spacing" textLength="145.9453" x="606" y="405.8193">- NFCTagReaderSession</text><text fill="#000000" font-family="sans-serif" font-size="13" lengthAdjust="spacing" textLength="156.0635" x="606" y="423.1104">- NFCISO7816TagProtocol</text></g><!--link MultiplatformReader to LocalNfcReader--><g id="link_MultiplatformReader_LocalNfcReader"><path codeLine="61" d="M391.23,241.01 C391.01,261.21 390.8442,276.0303 390.6342,295.6703 " fill="none" id="MultiplatformReader-to-LocalNfcReader" style="stroke:#181818;stroke-width:1.0;"/><polygon fill="#181818" points="390.57,301.67,394.666,292.7133,390.6235,296.6703,386.6665,292.6277,390.57,301.67" style="stroke:#181818;stroke-width:1.0;"/></g><!--link AndroidNfcReader to LocalNfcReader--><g id="link_AndroidNfcReader_LocalNfcReader"><path codeLine="62" d="M146.1,185.21 C162.64,203.62 181.38,223.6 199.5,241 C220.8,261.46 230.6486,270.6982 253.7286,290.3282 " fill="none" id="AndroidNfcReader-to-LocalNfcReader" style="stroke:#181818;stroke-width:1.0;"/><polygon fill="none" points="267.44,301.99,257.6159,285.7577,249.8413,294.8987,267.44,301.99" style="stroke:#181818;stroke-width:1.0;"/></g><!--link iOSNfcReader to LocalNfcReader--><g id="link_iOSNfcReader_LocalNfcReader"><path codeLine="63" d="M801.1,166.54 C737.81,202.36 659.5845,246.633 577.4545,293.123 " fill="none" id="iOSNfcReader-to-LocalNfcReader" style="stroke:#181818;stroke-width:1.0;"/><polygon fill="none" points="561.79,301.99,580.4102,298.3445,574.4989,287.9015,561.79,301.99" style="stroke:#181818;stroke-width:1.0;"/></g><!--link iOSNfcReader to NativeNfcReaderCallback--><g id="link_iOSNfcReader_NativeNfcReaderCallback"><path codeLine="64" d="M970.3,166.54 C1082.62,215.25 1263.2954,293.6027 1384.3054,346.0827 " fill="none" id="iOSNfcReader-to-NativeNfcReaderCallback" style="stroke:#181818;stroke-width:1.0;"/><polygon fill="#181818" points="1389.81,348.47,1383.1446,341.2193,1385.2228,346.4806,1379.9615,348.5589,1389.81,348.47" style="stroke:#181818;stroke-width:1.0;"/></g><!--link iOSNfcReader to NfcTag--><g id="link_iOSNfcReader_NfcTag"><path codeLine="65" d="M893.94,166.69 C918.07,218.43 956.4341,300.7123 980.5541,352.4323 " fill="none" id="iOSNfcReader-to-NfcTag" style="stroke:#181818;stroke-width:1.0;"/><polygon fill="#181818" points="983.09,357.87,982.9113,348.0228,980.9767,353.3385,975.6609,351.404,983.09,357.87" style="stroke:#181818;stroke-width:1.0;"/></g><!--link LocalNfcReader to ReaderIOException--><g id="link_LocalNfcReader_ReaderIOException"><path codeLine="67" d="M304.36,499.27 C279.75,527.53 258.5111,551.9259 239.9911,573.1859 " fill="none" id="LocalNfcReader-to-ReaderIOException" style="stroke:#181818;stroke-width:1.0;stroke-dasharray:7.0,7.0;"/><polygon fill="#181818" points="236.05,577.71,244.9777,573.5512,239.3342,573.9399,238.9455,568.2964,236.05,577.71" style="stroke:#181818;stroke-width:1.0;"/><text fill="#000000" font-family="sans-serif" font-size="13" lengthAdjust="spacing" textLength="38.2891" x="278.5" y="544.0283">throws</text></g><!--link LocalNfcReader to CardIOException--><g id="link_LocalNfcReader_CardIOException"><path codeLine="68" d="M389.5,499.27 C389.5,527.53 389.5,550.45 389.5,571.71 " fill="none" id="LocalNfcReader-to-CardIOException" style="stroke:#181818;stroke-width:1.0;stroke-dasharray:7.0,7.0;"/><polygon fill="#181818" points="389.5,577.71,393.5,568.71,389.5,572.71,385.5,568.71,389.5,577.71" style="stroke:#181818;stroke-width:1.0;"/><text fill="#000000" font-family="sans-serif" font-size="13" lengthAdjust="spacing" textLength="38.2891" x="390.5" y="544.0283">throws</text></g><!--link LocalNfcReader to UnexpectedStatusWordException--><g id="link_LocalNfcReader_UnexpectedStatusWordException"><path codeLine="69" d="M494.75,499.27 C525.29,527.63 552.1439,552.5766 575.0639,573.8666 " fill="none" id="LocalNfcReader-to-UnexpectedStatusWordException" style="stroke:#181818;stroke-width:1.0;stroke-dasharray:7.0,7.0;"/><polygon fill="#181818" points="579.46,577.95,575.5882,568.8941,575.7966,574.5471,570.1436,574.7556,579.46,577.95" style="stroke:#181818;stroke-width:1.0;"/><text fill="#000000" font-family="sans-serif" font-size="13" lengthAdjust="spacing" textLength="38.2891" x="543.5" y="544.0283">throws</text></g><!--SRC=[tLLBRzim3BxdL-Zee7E1NRR160AuIGi4M1wO6_JCIcmYp9OCYMaRRFllewJcxNR5ZZjPufkVFjAo1k_5P5sJRckW1-kQxmWAdVZP4o8t3p9T2_7DIgYdstjGDcl2vuAT-SFt2uzKIJ0Jz1wMc3L-MOYAd3RBVb0_WQORwuRWrDoXHqDPln1NrjO89leJE0hg4H9AqjPareJxZLqRLOYiB_A1M1XDCPvjqSnN6w-vhk4AZC4wYmfPMu-TcYNIt3wXcvaH48JqgRwW8mV6DvhALgqpQPi6Z0fdBd53M3e7c_x1ERWuvD8zSkpVlHxSUmuXISW8wJ5S4SqBlqVdCFD_2qpgFS6JK2cDSbQhOrno0cRABOHikVPsX6qXnl4R938LMeYNYh-ovI0e66pzg6bJYFBbj4-aPzL94cxnsZdh9e6M6J_0zRF4De0PqTlrcxleD8IwlWVven1JuE2uYxPLx7EnYaiwQ6LwCnnNiyzVFdvY-TnPijBMQKAC6YO4CsuqeRYtBkUZnH6K-nJTDIHQSSuahfXRtCz8golaXy882sO-YMEcsnFRVbU0Dpq-2ALVYCWgpuj1U_h7C6Fp2BLMG7YdQHMVXushU3XWJN8SptOlblfkJaPfPnz6u_tM2uFFBNU3gYAWjR-pJltTjsjbvioZapLvHlWy_tLcT4JMTnWCNkNakM7aPgztieukBmSTg1Q2Liu- -IxhKqpVidqRqPrdprX2SM-9R2FimzboOEGNJA6jFB18bFEnByAW7Io8q6IfeANqMugRX0TDXF1dIGuHsYPWcHXQXvmWnUxWwrRUCTYxN7y0]--></g></svg>